<?xml version="1.0" standalone="no"?><!DOCTYPE svg PUBLIC "-//W3C//DTD SVG 1.1//EN" "http://www.w3.org/Graphics/SVG/1.1/DTD/svg11.dtd"><svg height="512" node-id="1" sillyvg="true" template-height="512" template-width="512" version="1.1" viewBox="0 0 512 512" width="512" xmlns="http://www.w3.org/2000/svg" xmlns:xlink="http://www.w3.org/1999/xlink"><defs node-id="35"><mask height="75.7392" id="mask-2" maskUnits="userSpaceOnUse" node-id="10" width="57.618225" x="225.97888" y="378.5464"><path d="M 122.00 512.20 L 390.10 512.20 L 390.10 151.00 L 122.00 151.00 Z" fill="#ffffff" fill-rule="evenodd" node-id="40" stroke="none" target-height="361.2" target-width="268.1" target-x="122" target-y="151"></path></mask><mask height="80.25156" id="mask1" maskUnits="userSpaceOnUse" node-id="44" width="57.618225" x="225.77289" y="345.93436"><path d="M 122.00 512.20 L 390.10 512.20 L 390.10 151.00 L 122.00 151.00 Z" fill="#ffffff" fill-rule="evenodd" node-id="48" stroke="none" target-height="361.2" target-width="268.1" target-x="122" target-y="151"></path></mask><mask height="70.52402" id="mask2" maskUnits="userSpaceOnUse" node-id="52" width="60.312004" x="116.97404" y="304.36728"><path d="M 122.00 512.20 L 390.10 512.20 L 390.10 151.00 L 122.00 151.00 Z" fill="#ffffff" fill-rule="evenodd" node-id="56" stroke="none" target-height="361.2" target-width="268.1" target-x="122" target-y="151"></path></mask><mask height="70.52402" id="mask3" maskUnits="userSpaceOnUse" node-id="60" width="60.31198" x="334.77814" y="304.36728"><path d="M 122.00 512.20 L 390.10 512.20 L 390.10 151.00 L 122.00 151.00 Z" fill="#ffffff" fill-rule="evenodd" node-id="64" stroke="none" target-height="361.2" target-width="268.1" target-x="122" target-y="151"></path></mask><mask height="261" id="mask4" maskUnits="userSpaceOnUse" node-id="68" width="232.66705" x="139.52332" y="172.67552"><path d="M 122.00 512.20 L 390.10 512.20 L 390.10 151.00 L 122.00 151.00 Z" fill="#ffffff" fill-rule="evenodd" node-id="72" stroke="none" target-height="361.2" target-width="268.1" target-x="122" target-y="151"></path></mask><mask height="261.00003" id="mask5" maskUnits="userSpaceOnUse" node-id="76" width="232.66705" x="139.52332" y="165.6755"><path d="M 122.00 512.20 L 390.10 512.20 L 390.10 151.00 L 122.00 151.00 Z" fill="#ffffff" fill-rule="evenodd" node-id="80" stroke="none" target-height="361.2" target-width="268.1" target-x="122" target-y="151"></path></mask><mask height="277.98633" id="mask6" maskUnits="userSpaceOnUse" node-id="84" width="281.05276" x="-211.2825" y="1445.1757"><path d="M -296.90 1540.10 L -187.90 1785.00 L 142.10 1638.10 L 33.00 1393.20 Z" fill="#ffffff" fill-rule="evenodd" node-id="88" stroke="none" target-height="391.80005" target-width="439" target-x="-296.9" target-y="1393.2"></path></mask><mask height="88.32431" id="mask7" maskUnits="userSpaceOnUse" node-id="92" width="186.80975" x="160.38336" y="430.6257"><path d="M 122.00 512.20 L 390.10 512.20 L 390.10 151.00 L 122.00 151.00 Z" fill="#ffffff" fill-rule="evenodd" node-id="96" stroke="none" target-height="361.2" target-width="268.1" target-x="122" target-y="151"></path></mask><mask height="82.68335" id="mask8" maskUnits="userSpaceOnUse" node-id="100" width="187.68002" x="160.07596" y="436.3891"><path d="M 122.00 512.20 L 390.10 512.20 L 390.10 151.00 L 122.00 151.00 Z" fill="#ffffff" fill-rule="evenodd" node-id="104" stroke="none" target-height="361.2" target-width="268.1" target-x="122" target-y="151"></path></mask><mask height="147.64221" id="mask9" maskUnits="userSpaceOnUse" node-id="108" width="238.26202" x="138.52252" y="163.35486"><path d="M 122.00 512.20 L 390.10 512.20 L 390.10 151.00 L 122.00 151.00 Z" fill="#ffffff" fill-rule="evenodd" node-id="112" stroke="none" target-height="361.2" target-width="268.1" target-x="122" target-y="151"></path></mask><mask height="177.23233" id="mask10" maskUnits="userSpaceOnUse" node-id="116" width="278.62225" x="116.494644" y="136.23056"><path d="M 122.00 512.20 L 390.10 512.20 L 390.10 151.00 L 122.00 151.00 Z" fill="#ffffff" fill-rule="evenodd" node-id="120" stroke="none" target-height="361.2" target-width="268.1" target-x="122" target-y="151"></path></mask><mask height="56.880005" id="mask11" maskUnits="userSpaceOnUse" node-id="124" width="22.252808" x="151.86163" y="265.0422"><path d="M 122.00 512.20 L 390.10 512.20 L 390.10 151.00 L 122.00 151.00 Z" fill="#ffffff" fill-rule="evenodd" node-id="128" stroke="none" target-height="361.2" target-width="268.1" target-x="122" target-y="151"></path></mask><mask height="103.44" id="mask12" maskUnits="userSpaceOnUse" node-id="132" width="25.663208" x="329.77728" y="222.7622"><path d="M 122.00 512.20 L 390.10 512.20 L 390.10 151.00 L 122.00 151.00 Z" fill="#ffffff" fill-rule="evenodd" node-id="136" stroke="none" target-height="361.2" target-width="268.1" target-x="122" target-y="151"></path></mask></defs><path d="M 0.00 0.00 L 512.00 0.00 L 512.00 514.00 L 0.00 514.00 Z" fill="#c4fffd" fill-rule="evenodd" id="矩形" node-id="7" stroke="none" target-height="514" target-width="512" target-x="0" target-y="0"></path><g node-id="138"><path d="M 361.40 295.40 L 361.10 302.50 L 360.50 309.40 L 359.40 316.20 L 357.90 322.70 L 356.10 329.10 L 353.20 337.00 L 349.70 344.50 L 345.80 351.70 L 341.30 358.50 L 336.30 364.90 L 330.90 370.90 L 325.00 376.50 L 318.80 381.60 L 312.10 386.20 L 305.10 390.30 L 297.80 393.80 L 290.20 396.70 L 283.90 398.70 L 277.50 400.20 L 271.00 401.30 L 264.20 401.90 L 257.30 402.20 L 250.40 401.90 L 243.60 401.30 L 237.10 400.20 L 230.70 398.70 L 224.40 396.70 L 216.70 393.80 L 209.40 390.30 L 202.50 386.20 L 195.80 381.60 L 189.60 376.50 L 183.70 370.90 L 178.30 364.90 L 173.30 358.50 L 168.80 351.70 L 164.90 344.50 L 161.40 337.00 L 158.50 329.10 L 156.70 322.70 L 155.20 316.20 L 154.10 309.40 L 153.50 302.50 L 153.20 295.40 L 153.50 288.30 L 154.10 281.30 L 155.20 274.60 L 156.70 268.00 L 158.50 261.60 L 161.40 253.80 L 164.90 246.30 L 168.80 239.10 L 173.30 232.30 L 178.30 225.90 L 183.70 219.90 L 189.60 214.30 L 195.80 209.20 L 202.50 204.60 L 209.40 200.50 L 216.70 197.00 L 224.40 194.00 L 230.70 192.10 L 237.10 190.60 L 243.60 189.50 L 250.40 188.80 L 257.30 188.60 L 264.20 188.80 L 271.00 189.50 L 277.50 190.60 L 283.90 192.10 L 290.20 194.00 L 297.80 197.00 L 305.10 200.50 L 312.10 204.60 L 318.80 209.20 L 325.00 214.30 L 330.90 219.90 L 336.30 225.90 L 341.30 232.30 L 345.80 239.10 L 349.70 246.30 L 353.20 253.80 L 356.10 261.60 L 357.90 268.00 L 359.40 274.60 L 360.50 281.30 L 361.10 288.30 L 361.40 295.40" fill="#025483" fill-rule="evenodd" group-id="1" id="Fill-1" node-id="9" stroke="none" target-height="213.6" target-width="208.2" target-x="153.2" target-y="188.6"></path><g node-id="141"><path d="M 230.80 448.00 L 278.80 448.00 L 278.80 384.90 L 230.80 384.90 Z" fill="#ffbbba" fill-rule="evenodd" group-id="1,4" id="Fill-3" node-id="13" stroke="none" target-height="63.100006" target-width="47.999985" target-x="230.8" target-y="384.9"></path></g><g node-id="142"><path d="M 230.60 415.70 L 237.90 417.50 L 244.70 418.60 L 250.80 419.30 L 256.40 419.50 L 262.10 419.30 L 267.70 418.60 L 273.20 417.40 L 278.60 415.70 L 278.60 352.60 L 230.60 352.60 L 230.60 415.70 Z" fill="#fb918d" fill-rule="evenodd" group-id="1,5" id="Fill-1" node-id="14" stroke="none" target-height="66.899994" target-width="48" target-x="230.6" target-y="352.6"></path></g><g node-id="143"><path d="M 172.30 339.60 L 172.00 343.70 L 171.40 347.50 L 170.30 351.10 L 168.80 354.50 L 167.00 357.60 L 164.90 360.40 L 162.50 362.90 L 159.80 365.00 L 156.90 366.70 L 153.80 368.00 L 150.60 368.70 L 147.10 369.00 L 143.70 368.70 L 140.40 368.00 L 137.30 366.70 L 134.50 365.00 L 131.80 362.90 L 129.40 360.40 L 127.20 357.60 L 125.50 354.50 L 124.00 351.10 L 122.90 347.50 L 122.20 343.70 L 122.00 339.60 L 122.20 335.60 L 122.90 331.80 L 124.00 328.20 L 125.50 324.80 L 127.20 321.70 L 129.40 318.90 L 131.80 316.30 L 134.50 314.30 L 137.30 312.60 L 140.40 311.30 L 143.70 310.50 L 147.10 310.20 L 150.60 310.50 L 153.80 311.30 L 156.90 312.60 L 159.80 314.30 L 162.50 316.30 L 164.90 318.90 L 167.00 321.70 L 168.80 324.80 L 170.30 328.20 L 171.40 331.80 L 172.00 335.60 L 172.30 339.60" fill="#ffbbba" fill-rule="evenodd" group-id="1,6" id="Fill-5" node-id="15" stroke="none" target-height="58.799988" target-width="50.300003" target-x="122" target-y="310.2"></path></g><g node-id="144"><path d="M 390.10 339.60 L 389.80 343.70 L 389.20 347.50 L 388.10 351.10 L 386.60 354.50 L 384.80 357.60 L 382.70 360.40 L 380.30 362.90 L 377.60 365.00 L 374.70 366.70 L 371.60 368.00 L 368.40 368.70 L 364.90 369.00 L 361.50 368.70 L 358.20 368.00 L 355.20 366.70 L 352.30 365.00 L 349.60 362.90 L 347.20 360.40 L 345.10 357.60 L 343.30 354.50 L 341.80 351.10 L 340.70 347.50 L 340.00 343.70 L 339.80 339.60 L 340.00 335.60 L 340.70 331.80 L 341.80 328.20 L 343.30 324.80 L 345.10 321.70 L 347.20 318.90 L 349.60 316.30 L 352.30 314.30 L 355.20 312.60 L 358.20 311.30 L 361.50 310.50 L 364.90 310.20 L 368.40 310.50 L 371.60 311.30 L 374.70 312.60 L 377.60 314.30 L 380.30 316.30 L 382.70 318.90 L 384.80 321.70 L 386.60 324.80 L 388.10 328.20 L 389.20 331.80 L 389.80 335.60 L 390.10 339.60" fill="#ffbbba" fill-rule="evenodd" group-id="1,7" id="Fill-7" node-id="16" stroke="none" target-height="58.799988" target-width="50.30002" target-x="339.8" target-y="310.2"></path></g><g node-id="145"><path d="M 255.90 411.90 L 247.70 411.30 L 237.30 409.30 L 225.50 405.90 L 219.50 403.70 L 207.00 398.20 L 200.90 394.90 L 194.90 391.20 L 189.00 387.20 L 183.50 382.80 L 178.40 378.10 L 173.70 373.00 L 170.50 368.90 L 167.60 364.60 L 165.10 360.00 L 162.90 355.30 L 161.20 350.40 L 160.00 345.30 L 159.20 339.90 L 158.90 334.10 L 159.20 312.80 L 159.70 301.40 L 160.70 289.70 L 163.00 274.10 L 166.60 258.80 L 169.00 251.40 L 171.80 244.20 L 177.00 233.90 L 183.50 224.50 L 187.20 220.20 L 191.30 216.10 L 195.80 212.30 L 200.70 208.70 L 205.80 205.60 L 211.50 202.80 L 217.70 200.40 L 224.50 198.20 L 231.20 196.60 L 238.70 195.50 L 246.90 194.70 L 255.90 194.40 L 264.80 194.70 L 273.00 195.50 L 280.50 196.60 L 287.30 198.20 L 294.10 200.40 L 300.20 202.80 L 305.90 205.60 L 311.00 208.70 L 315.90 212.30 L 320.40 216.10 L 324.50 220.20 L 328.20 224.50 L 331.60 229.10 L 337.40 239.00 L 339.90 244.20 L 342.70 251.40 L 345.10 258.80 L 347.10 266.40 L 350.00 281.90 L 352.00 301.40 L 352.50 312.80 L 352.80 334.10 L 352.50 339.90 L 351.70 345.30 L 350.50 350.40 L 348.80 355.30 L 346.60 360.00 L 344.10 364.60 L 341.30 368.90 L 338.00 373.00 L 333.30 378.10 L 328.20 382.80 L 322.70 387.20 L 316.80 391.20 L 310.90 394.90 L 298.40 401.10 L 286.20 405.90 L 274.40 409.30 L 264.00 411.30 L 255.90 411.90 Z" fill="#ffbbba" fill-rule="evenodd" group-id="1,8" id="Fill-9" node-id="17" stroke="none" target-height="217.5" target-width="193.9" target-x="158.9" target-y="194.4"></path></g><g node-id="146"><path d="M 255.90 404.90 L 247.70 404.30 L 237.30 402.30 L 225.50 398.90 L 219.50 396.70 L 207.00 391.20 L 200.90 387.90 L 194.90 384.20 L 189.00 380.20 L 183.50 375.80 L 178.40 371.10 L 173.70 366.00 L 170.50 361.90 L 167.60 357.60 L 165.10 353.00 L 162.90 348.30 L 161.20 343.40 L 160.00 338.30 L 159.20 332.90 L 158.90 327.10 L 159.20 305.80 L 159.70 294.40 L 160.70 282.70 L 163.00 267.10 L 166.60 251.80 L 169.00 244.40 L 171.80 237.20 L 177.00 226.90 L 183.50 217.50 L 187.20 213.20 L 191.30 209.10 L 195.80 205.30 L 200.70 201.70 L 205.80 198.60 L 211.50 195.80 L 217.70 193.40 L 224.50 191.20 L 231.20 189.60 L 238.70 188.50 L 246.90 187.70 L 255.90 187.40 L 264.80 187.70 L 273.00 188.50 L 280.50 189.60 L 287.30 191.20 L 294.10 193.40 L 300.20 195.80 L 305.90 198.60 L 311.00 201.70 L 315.90 205.30 L 320.40 209.10 L 324.50 213.20 L 328.20 217.50 L 331.60 222.10 L 337.40 232.00 L 339.90 237.20 L 342.70 244.40 L 345.10 251.80 L 347.10 259.40 L 350.00 274.90 L 352.00 294.40 L 352.50 305.80 L 352.80 327.10 L 352.50 332.90 L 351.70 338.30 L 350.50 343.40 L 348.80 348.30 L 346.60 353.00 L 344.10 357.60 L 341.30 361.90 L 338.00 366.00 L 333.30 371.10 L 328.20 375.80 L 322.70 380.20 L 316.80 384.20 L 310.90 387.90 L 298.40 394.10 L 286.20 398.90 L 274.40 402.30 L 264.00 404.30 L 255.90 404.90 Z" fill="#ffd5d6" fill-rule="evenodd" group-id="1,9" id="Fill-9" node-id="18" stroke="none" target-height="217.5" target-width="193.9" target-x="158.9" target-y="187.4"></path></g><g node-id="147"><g node-id="154"><path d="M 263.30 335.40 L 262.60 336.70 L 261.70 337.30 L 260.10 337.90 L 255.60 338.40 L 251.20 337.90 L 249.60 337.30 L 248.70 336.70 L 248.00 335.40 L 248.30 333.30 L 249.00 331.40 L 250.20 329.90 L 251.80 328.70 L 253.60 328.00 L 255.60 327.70 L 257.70 328.00 L 259.50 328.70 L 261.00 329.90 L 262.20 331.40 L 263.00 333.30 L 263.30 335.40" fill="#e8b39f" fill-rule="evenodd" group-id="1,10,17" id="Fill-12" node-id="21" stroke="none" target-height="10.699982" target-width="15.299988" target-x="248" target-y="327.7"></path><path d="M 209.20 277.60 L 209.90 276.10 L 211.00 275.10 L 212.40 274.60 L 214.00 274.60 L 231.50 278.60 L 233.00 279.30 L 234.00 280.40 L 234.60 281.90 L 234.50 283.50 L 233.90 284.90 L 232.70 285.90 L 231.30 286.50 L 229.70 286.40 L 212.20 282.40 L 210.80 281.70 L 209.70 280.60 L 209.20 279.20 L 209.20 277.60 Z" fill="#502b31" fill-rule="nonzero" group-id="1,10,17" id="Stroke-15" node-id="22" stroke="none" target-height="11.899994" target-width="25.40001" target-x="209.2" target-y="274.6"></path><path d="M 302.70 277.60 L 302.80 279.20 L 302.30 280.60 L 301.20 281.70 L 299.80 282.40 L 282.30 286.40 L 280.70 286.50 L 279.30 285.90 L 278.10 284.90 L 277.50 283.50 L 277.40 281.90 L 277.90 280.40 L 279.00 279.30 L 280.40 278.60 L 297.90 274.60 L 299.50 274.60 L 300.90 275.10 L 302.00 276.10 L 302.70 277.60 Z" fill="#502b31" fill-rule="nonzero" group-id="1,10,17" id="Stroke-16" node-id="23" stroke="none" target-height="11.899994" target-width="25.399994" target-x="277.4" target-y="274.6"></path><g node-id="155"><path d="M 266.80 358.90 L 268.30 358.60 L 269.60 359.50 L 269.80 361.00 L 269.00 362.20 L 265.60 364.10 L 262.30 365.40 L 258.90 366.20 L 255.50 366.50 L 252.10 366.30 L 248.70 365.60 L 245.40 364.50 L 242.00 362.90 L 241.40 362.40 L 241.00 360.90 L 241.80 359.50 L 243.30 359.20 L 249.70 361.70 L 255.40 362.50 L 258.30 362.20 L 261.10 361.60 L 263.90 360.50 L 266.80 358.90 Z" fill="#d06946" fill-rule="nonzero" group-id="1,10,17,18" id="Stroke-28" node-id="24" stroke="none" target-height="7.899994" target-width="28.799988" target-x="241" target-y="358.6"></path></g><g node-id="156"><path d="M 224.10 310.80 L 225.60 310.50 L 226.90 311.40 L 227.20 312.90 L 226.30 314.10 L 222.90 316.00 L 219.60 317.30 L 216.20 318.10 L 212.80 318.40 L 209.40 318.20 L 206.00 317.50 L 202.70 316.40 L 199.40 314.80 L 198.80 314.30 L 198.40 312.80 L 199.20 311.50 L 200.60 311.10 L 207.00 313.60 L 212.70 314.40 L 215.60 314.10 L 218.40 313.50 L 221.30 312.40 L 224.10 310.80 Z" fill="#000000" fill-rule="nonzero" group-id="1,10,17,19" id="Stroke-28备份" node-id="25" stroke="none" target-height="7.899994" target-width="28.800003" target-x="198.4" target-y="310.5"></path></g><path d="M 307.10 310.80 L 308.60 310.50 L 309.90 311.40 L 310.20 312.90 L 309.30 314.10 L 305.90 316.00 L 302.60 317.30 L 299.20 318.10 L 295.80 318.40 L 292.40 318.20 L 289.00 317.50 L 285.70 316.40 L 282.40 314.80 L 281.80 314.30 L 281.40 312.80 L 282.20 311.50 L 283.60 311.10 L 290.00 313.60 L 295.70 314.40 L 298.60 314.10 L 301.40 313.50 L 304.30 312.40 L 307.10 310.80 Z" fill="#000000" fill-rule="nonzero" group-id="1,10,17,20" id="Stroke-28备份-2" node-id="26" stroke="none" target-height="7.899994" target-width="28.800018" target-x="281.4" target-y="310.5"></path></g></g><g node-id="148"><path d="M 331.60 511.60 L 176.00 511.60 L 176.20 505.50 L 176.90 499.60 L 178.10 493.90 L 179.70 488.30 L 181.80 482.90 L 184.20 477.70 L 187.00 472.80 L 190.20 468.10 L 193.70 463.70 L 197.50 459.50 L 201.60 455.70 L 206.10 452.20 L 210.80 449.00 L 215.70 446.20 L 220.90 443.80 L 226.30 441.70 L 231.80 440.10 L 237.50 439.00 L 243.40 438.20 L 249.60 438.00 L 264.10 438.20 L 270.00 439.00 L 275.70 440.10 L 281.30 441.70 L 286.70 443.80 L 291.90 446.20 L 296.80 449.00 L 301.50 452.20 L 305.90 455.70 L 310.10 459.50 L 313.90 463.70 L 317.40 468.10 L 320.60 472.80 L 323.40 477.70 L 325.80 482.90 L 327.90 488.30 L 329.50 493.90 L 330.70 499.60 L 331.40 505.50 L 331.60 511.60" fill="#ffbbba" fill-rule="evenodd" group-id="1,11" id="Fill-13" node-id="27" stroke="none" target-height="73.600006" target-width="155.6" target-x="176" target-y="438"></path></g><g node-id="149"><path d="M 290.10 445.00 L 288.00 449.30 L 285.30 453.20 L 282.20 456.70 L 278.60 459.90 L 274.70 462.50 L 270.40 464.70 L 267.00 465.90 L 259.90 467.40 L 256.00 467.60 L 252.00 467.40 L 244.60 465.80 L 241.10 464.40 L 234.70 460.70 L 231.80 458.50 L 226.70 453.10 L 222.90 446.80 L 221.40 443.30 L 211.70 448.20 L 207.20 451.10 L 198.90 457.90 L 191.70 465.80 L 185.60 474.70 L 180.90 484.50 L 179.10 489.70 L 177.60 495.00 L 176.60 500.50 L 175.90 506.10 L 175.70 512.20 L 332.10 512.20 L 331.90 506.40 L 331.30 501.00 L 329.10 490.70 L 325.40 480.90 L 320.40 471.90 L 316.50 466.30 L 312.10 461.10 L 307.20 456.30 L 301.90 452.00 L 296.20 448.30 L 290.10 445.00" fill="#66b5db" fill-rule="evenodd" group-id="1,12" id="Fill-14" node-id="28" stroke="none" target-height="68.900024" target-width="156.40001" target-x="175.7" target-y="443.3"></path></g><g node-id="150"><path d="M 171.10 193.10 L 171.80 192.50 L 174.20 191.70 L 184.20 189.10 L 199.50 185.80 L 218.50 182.40 L 249.80 178.00 L 270.30 176.10 L 279.50 175.70 L 288.40 175.70 L 295.60 176.20 L 300.30 176.80 L 304.00 177.70 L 306.70 178.80 L 307.10 176.70 L 307.60 176.00 L 308.30 175.70 L 317.10 179.20 L 327.90 181.10 L 328.90 181.90 L 328.30 183.00 L 334.50 188.60 L 337.50 191.90 L 341.60 197.20 L 345.30 202.60 L 348.60 208.20 L 353.70 218.60 L 355.40 222.70 L 356.90 228.70 L 356.80 229.70 L 356.50 230.00 L 355.70 229.60 L 356.60 233.00 L 356.90 235.70 L 356.80 237.90 L 356.20 240.10 L 355.30 241.90 L 354.20 243.50 L 352.00 245.40 L 349.50 246.80 L 346.80 247.80 L 344.20 248.50 L 338.10 249.20 L 335.50 278.00 L 326.40 258.90 L 315.70 238.40 L 311.00 230.70 L 309.00 227.90 L 307.70 226.80 L 301.80 234.10 L 295.90 240.50 L 290.10 246.10 L 284.40 250.90 L 278.30 255.30 L 272.00 259.10 L 265.60 262.20 L 259.20 264.80 L 252.50 266.70 L 245.50 268.20 L 238.20 269.10 L 230.60 269.50 L 239.60 250.00 L 233.10 258.10 L 226.50 265.50 L 219.80 272.30 L 212.90 278.40 L 205.70 284.30 L 198.30 289.60 L 190.80 294.40 L 183.00 298.70 L 184.00 272.30 L 179.90 277.20 L 173.00 284.10 L 158.90 296.20 L 159.40 283.90 L 158.40 263.00 L 158.50 257.20 L 159.30 245.20 L 159.50 231.00 L 160.40 219.10 L 162.30 209.20 L 164.90 201.90 L 166.70 198.60 L 168.80 195.70 L 171.10 193.10 Z" fill="#ffbbba" fill-rule="evenodd" group-id="1,13" id="Fill-17" node-id="29" stroke="none" target-height="123.000015" target-width="198.5" target-x="158.4" target-y="175.7"></path></g><g node-id="151"><path d="M 139.70 245.50 L 141.50 237.50 L 143.80 229.90 L 146.40 222.60 L 149.60 215.50 L 153.10 208.80 L 157.10 202.50 L 161.40 196.50 L 166.10 191.10 L 171.10 186.10 L 161.70 179.10 L 168.60 175.30 L 175.70 171.90 L 182.80 168.90 L 190.10 166.30 L 197.50 164.20 L 205.00 162.50 L 212.60 161.30 L 220.20 160.50 L 227.90 160.10 L 235.70 160.20 L 231.20 151.00 L 240.90 152.10 L 250.50 153.60 L 260.10 155.60 L 269.60 158.00 L 279.00 160.80 L 288.40 164.00 L 297.60 167.70 L 306.70 171.80 L 306.80 167.10 L 306.10 162.50 L 305.40 159.50 L 303.20 154.20 L 305.20 156.60 L 311.20 167.30 L 312.80 169.50 L 315.50 171.60 L 317.10 172.20 L 320.70 172.30 L 326.40 171.10 L 343.20 164.50 L 328.30 176.00 L 334.60 181.20 L 340.40 186.70 L 345.80 192.50 L 350.80 198.70 L 355.50 205.20 L 360.00 212.20 L 368.00 227.10 L 371.90 235.20 L 355.70 222.60 L 361.60 241.40 L 364.00 250.40 L 365.90 259.40 L 367.40 268.70 L 368.50 278.80 L 364.00 271.90 L 357.80 263.90 L 350.90 255.90 L 338.10 242.20 L 335.50 271.00 L 326.40 251.50 L 315.70 230.60 L 311.00 222.70 L 309.00 219.90 L 307.70 218.80 L 301.80 226.10 L 296.10 232.60 L 290.50 238.30 L 285.10 243.30 L 279.20 248.00 L 273.20 251.90 L 267.20 255.30 L 261.00 258.00 L 254.60 260.10 L 247.90 261.70 L 240.70 262.70 L 233.10 263.10 L 240.30 243.00 L 233.80 251.10 L 227.10 258.70 L 220.30 265.60 L 213.40 272.00 L 206.00 278.10 L 198.50 283.60 L 190.90 288.50 L 183.20 292.80 L 184.00 265.30 L 178.30 272.10 L 172.40 278.40 L 166.30 284.20 L 159.80 289.50 L 153.30 294.40 L 146.50 298.70 L 151.80 240.80 L 139.70 245.50" fill="#025483" fill-rule="evenodd" group-id="1,14" id="Fill-17" node-id="30" stroke="none" target-height="147.70001" target-width="232.2" target-x="139.7" target-y="151"></path></g><g node-id="152"><path d="M 172.30 269.80 L 166.20 301.80 L 164.90 313.00 L 164.90 317.20 L 157.90 313.10 L 153.70 284.80 L 172.30 269.80 Z" fill="#025483" fill-rule="evenodd" group-id="1,15" id="Fill-18" node-id="31" stroke="none" target-height="47.400024" target-width="18.600006" target-x="153.7" target-y="269.8"></path></g><path d="M 331.90 231.40 L 341.80 284.20 L 345.80 310.40 L 346.30 317.60 L 353.30 313.50 L 350.70 245.00 L 331.90 231.40 Z" fill="#025483" fill-rule="evenodd" group-id="1,16" id="Fill-19" node-id="32" stroke="none" target-height="86.20001" target-width="21.399994" target-x="331.9" target-y="231.4"></path></g></svg>